<svg width="48" height="49" viewBox="0 0 48 49" fill="none" xmlns="http://www.w3.org/2000/svg">
<path d="M23.98 4.4397C12.94 4.4397 4 13.3997 4 24.4397C4 35.4797 12.94 44.4397 23.98 44.4397C35.04 44.4397 44 35.4797 44 24.4397C44 13.3997 35.04 4.4397 23.98 4.4397ZM24 40.4397C15.16 40.4397 8 33.2797 8 24.4397C8 15.5997 15.16 8.4397 24 8.4397C32.84 8.4397 40 15.5997 40 24.4397C40 33.2797 32.84 40.4397 24 40.4397ZM23.56 14.4397H23.44C22.64 14.4397 22 15.0797 22 15.8797V25.3197C22 26.0197 22.36 26.6797 22.98 27.0397L31.28 32.0197C31.96 32.4197 32.84 32.2197 33.24 31.5397C33.66 30.8597 33.44 29.9597 32.74 29.5597L25 24.9597V15.8797C25 15.0797 24.36 14.4397 23.56 14.4397Z" fill="#FB5B17"/>
</svg>
