<svg width="48" height="48" viewBox="0 0 48 48" fill="none" xmlns="http://www.w3.org/2000/svg">
<path d="M22.3 6.79984L14.86 18.9598C14.04 20.2798 15 21.9998 16.56 21.9998H31.42C32.98 21.9998 33.94 20.2798 33.12 18.9598L25.7 6.79984C24.92 5.51984 23.08 5.51984 22.3 6.79984Z" fill="#A2FFE3"/>
<path d="M35 44C39.9706 44 44 39.9706 44 35C44 30.0294 39.9706 26 35 26C30.0294 26 26 30.0294 26 35C26 39.9706 30.0294 44 35 44Z" fill="#A2FFE3"/>
<path d="M8 43H20C21.1 43 22 42.1 22 41V29C22 27.9 21.1 27 20 27H8C6.9 27 6 27.9 6 29V41C6 42.1 6.9 43 8 43Z" fill="#A2FFE3"/>
</svg>
