<svg width="48" height="48" viewBox="0 0 48 48" fill="none" xmlns="http://www.w3.org/2000/svg">
<path d="M23.98 4C12.94 4 4 12.96 4 24C4 35.04 12.94 44 23.98 44C35.04 44 44 35.04 44 24C44 12.96 35.04 4 23.98 4ZM30.44 34.78L24 30.9L17.56 34.78C16.8 35.24 15.86 34.56 16.06 33.7L17.76 26.38L12.1 21.48C11.44 20.9 11.8 19.8 12.68 19.72L20.16 19.08L23.08 12.18C23.42 11.36 24.58 11.36 24.92 12.18L27.84 19.06L35.32 19.7C36.2 19.78 36.56 20.88 35.88 21.46L30.22 26.36L31.92 33.7C32.12 34.56 31.2 35.24 30.44 34.78Z" fill="#FB5B17"/>
</svg>
