<svg width="48" height="48" viewBox="0 0 48 48" fill="none" xmlns="http://www.w3.org/2000/svg">
<path d="M24.02 4C12.98 4 4.04004 12.96 4.04004 24C4.04004 35.04 12.98 44 24.02 44C35.08 44 44.04 35.04 44.04 24C44.04 12.96 35.08 4 24.02 4ZM24.04 40C15.2 40 8.04004 32.84 8.04004 24C8.04004 15.16 15.2 8 24.04 8C32.88 8 40.04 15.16 40.04 24C40.04 32.84 32.88 40 24.04 40ZM31.04 22C32.7 22 34.04 20.66 34.04 19C34.04 17.34 32.7 16 31.04 16C29.38 16 28.04 17.34 28.04 19C28.04 20.66 29.38 22 31.04 22ZM17.04 22C18.7 22 20.04 20.66 20.04 19C20.04 17.34 18.7 16 17.04 16C15.38 16 14.04 17.34 14.04 19C14.04 20.66 15.38 22 17.04 22ZM24.04 35C28.1 35 31.64 32.78 33.54 29.5C33.92 28.84 33.44 28 32.66 28H15.42C14.66 28 14.16 28.84 14.54 29.5C16.44 32.78 19.98 35 24.04 35Z" fill="#8154FF"/>
</svg>
