<svg width="1300" height="552" viewBox="0 0 1300 552" fill="none" xmlns="http://www.w3.org/2000/svg">
<mask id="path-1-outside-1_4173_802" maskUnits="userSpaceOnUse" x="0" y="-748" width="1300" height="1300" fill="black">
<rect fill="white" y="-748" width="1300" height="1300"/>
<path fill-rule="evenodd" clip-rule="evenodd" d="M650 540C1002.36 540 1288 254.358 1288 -98C1288 -450.358 1002.36 -736 650 -736C297.642 -736 12 -450.358 12 -98C12 254.358 297.642 540 650 540ZM650 402C926.142 402 1150 178.142 1150 -98C1150 -374.142 926.142 -598 650 -598C373.858 -598 150 -374.142 150 -98C150 178.142 373.858 402 650 402Z"/>
</mask>
<path fill-rule="evenodd" clip-rule="evenodd" d="M650 540C1002.36 540 1288 254.358 1288 -98C1288 -450.358 1002.36 -736 650 -736C297.642 -736 12 -450.358 12 -98C12 254.358 297.642 540 650 540ZM650 402C926.142 402 1150 178.142 1150 -98C1150 -374.142 926.142 -598 650 -598C373.858 -598 150 -374.142 150 -98C150 178.142 373.858 402 650 402Z" fill="white"/>
<path d="M1276 -98C1276 247.73 995.73 528 650 528V552C1008.99 552 1300 260.985 1300 -98H1276ZM650 -724C995.73 -724 1276 -443.73 1276 -98H1300C1300 -456.985 1008.99 -748 650 -748V-724ZM24 -98C24 -443.73 304.27 -724 650 -724V-748C291.015 -748 0 -456.985 0 -98H24ZM650 528C304.27 528 24 247.73 24 -98H0C0 260.985 291.015 552 650 552V528ZM1138 -98C1138 171.515 919.515 390 650 390V414C932.77 414 1162 184.77 1162 -98H1138ZM650 -586C919.515 -586 1138 -367.515 1138 -98H1162C1162 -380.77 932.77 -610 650 -610V-586ZM162 -98C162 -367.515 380.485 -586 650 -586V-610C367.23 -610 138 -380.77 138 -98H162ZM650 390C380.485 390 162 171.515 162 -98H138C138 184.77 367.23 414 650 414V390Z" fill="url(#paint0_angular_4173_802)" mask="url(#path-1-outside-1_4173_802)"/>
<defs>
<radialGradient id="paint0_angular_4173_802" cx="0" cy="0" r="1" gradientUnits="userSpaceOnUse" gradientTransform="translate(12 -27) rotate(76.9394) scale(227.895 251.892)">
<stop offset="0.185" stop-color="#EB8EEB" stop-opacity="0.8"/>
<stop offset="0.575" stop-color="#A49FD7" stop-opacity="0.5"/>
<stop offset="0.95" stop-color="#A49FD7" stop-opacity="0"/>
<stop offset="0.974062" stop-color="#FB8AF0"/>
</radialGradient>
</defs>
</svg>
