<svg width="65" height="65" viewBox="0 0 65 65" fill="none" xmlns="http://www.w3.org/2000/svg">
<g style="mix-blend-mode:multiply">
<path d="M30.2623 56.3606C30.2623 60.7789 26.613 64.4664 22.3666 63.246C21.1152 62.8864 19.8841 62.4408 18.6814 61.911C15.0098 60.2938 11.6737 57.9234 8.86359 54.9352C6.05348 51.947 3.82438 48.3995 2.30356 44.4952C0.782736 40.5909 -2.08386e-05 36.4063 -2.04801e-05 32.1803C-2.01217e-05 27.9543 0.782737 23.7697 2.30356 19.8654C3.82438 15.9611 6.05349 12.4136 8.8636 9.42539C11.6737 6.43717 15.0098 4.06679 18.6814 2.44958C19.8841 1.9198 21.1152 1.47425 22.3666 1.1146C26.613 -0.105801 30.2623 3.58172 30.2623 8L30.2623 32.1803L30.2623 56.3606Z" fill="#4454D4"/>
<path d="M36.2295 8.00011C36.2295 3.58183 39.8794 -0.108037 44.1256 1.11299C48.7887 2.45389 53.0832 4.97324 56.5733 8.4892C60.0768 12.0187 62.5835 16.3647 63.9106 21.0832C65.1069 25.3365 61.4183 28.9837 57 28.9837L44.2295 28.9837C39.8112 28.9837 36.2295 25.402 36.2295 20.9837L36.2295 8.00011Z" fill="#4454D4"/>
<path d="M57 35.377C61.4183 35.377 65.1069 39.0242 63.9106 43.2775C62.5834 47.996 60.0768 52.342 56.5733 55.8715C53.0832 59.3875 48.7887 61.9068 44.1256 63.2477C39.8794 64.4687 36.2295 60.7789 36.2295 56.3606L36.2295 43.377C36.2295 38.9587 39.8112 35.377 44.2295 35.377L57 35.377Z" fill="#4454D4"/>
</g>
</svg>
