<svg width="40" height="40" viewBox="0 0 40 40" fill="none" xmlns="http://www.w3.org/2000/svg">
<path d="M18.6229 36.6066C18.6229 38.2634 17.2702 39.6324 15.6375 39.3504C14.2195 39.1056 12.8296 38.6864 11.4962 38.0991C9.23677 37.1039 7.18379 35.6452 5.45449 33.8063C3.72519 31.9674 2.35343 29.7843 1.41754 27.3817C0.48165 24.979 -4.68626e-05 22.4039 -4.6642e-05 19.8033C-4.64214e-05 17.2027 0.481651 14.6275 1.41754 12.2249C2.35343 9.82224 3.72519 7.63915 5.45449 5.80024C7.18379 3.96134 9.23677 2.50264 11.4962 1.50743C12.8296 0.920111 14.2195 0.501 15.6375 0.256112C17.2702 -0.0258562 18.6229 1.34315 18.6229 3L18.6229 19.8033L18.6229 36.6066Z" fill="#4454D4"/>
<path d="M22.2951 3.00023C22.2951 1.34338 23.6479 -0.0258259 25.2807 0.25558C28.8684 0.873912 32.2063 2.59693 34.8144 5.2243C37.4276 7.85687 39.1395 11.2276 39.7502 14.8501C40.0256 16.4839 38.6569 17.8363 37 17.8363L25.2951 17.8363C23.6382 17.8363 22.2951 16.4932 22.2951 14.8363L22.2951 3.00023Z" fill="#4454D4"/>
<path d="M37 21.7704C38.6569 21.7704 40.0256 23.1228 39.7502 24.7566C39.1395 28.379 37.4276 31.7498 34.8143 34.3824C32.2063 37.0097 28.8684 38.7328 25.2807 39.3511C23.6479 39.6325 22.2951 38.2633 22.2951 36.6064L22.2951 24.7704C22.2951 23.1135 23.6382 21.7704 25.2951 21.7704L37 21.7704Z" fill="#4454D4"/>
</svg>
